<mxfile host="app.diagrams.net" modified="2023-01-29T03:11:18.011Z" agent="5.0 (Macintosh; Intel Mac OS X 10_15_7) AppleWebKit/537.36 (KHTML, like Gecko) Chrome/109.0.0.0 Safari/537.36" version="20.8.5" etag="tR9aSWpS7UpydjG3DQxT" type="github">
  <diagram id="cSSVskHpXmjwCybto3UF" name="第 1 页">
    <mxGraphModel dx="1026" dy="733" grid="1" gridSize="10" guides="1" tooltips="1" connect="1" arrows="1" fold="1" page="1" pageScale="1" pageWidth="827" pageHeight="1169" math="0" shadow="0">
      <root>
        <mxCell id="0" />
        <mxCell id="1" parent="0" />
        <mxCell id="cbg_xlcBTNJZDiDZye4J-8" value="" style="edgeStyle=orthogonalEdgeStyle;rounded=0;sketch=1;hachureGap=4;jiggle=2;curveFitting=1;orthogonalLoop=1;jettySize=auto;html=1;fontFamily=Architects Daughter;fontSource=https%3A%2F%2Ffonts.googleapis.com%2Fcss%3Ffamily%3DArchitects%2BDaughter;fontSize=16;entryX=0;entryY=0.5;entryDx=0;entryDy=0;fillColor=#dae8fc;strokeColor=#6c8ebf;strokeWidth=2;" edge="1" parent="1" source="cbg_xlcBTNJZDiDZye4J-1" target="cbg_xlcBTNJZDiDZye4J-9">
          <mxGeometry relative="1" as="geometry">
            <mxPoint x="525.5799999999999" y="250.98000000000002" as="targetPoint" />
          </mxGeometry>
        </mxCell>
        <mxCell id="cbg_xlcBTNJZDiDZye4J-1" value="" style="shape=image;verticalLabelPosition=bottom;labelBackgroundColor=default;verticalAlign=top;aspect=fixed;imageAspect=0;image=data:image/png,iVBORw0KGgoAAAANSUhEUgAAAT4AAACfCAMAAABX0UX9AAABL1BMVEX///83NTW75vvT7/wSh7E0MjIwLi4sKir8/PwrKSn6+voAhK/29vbm5uYhHh7y8vLt7e0nJSXT09Pd3d08OjoeGxvEw8Pj4+PZ2dlQTk62tbVFQ0PJycmMi4u9vLx5eHiwr6+DgoJwb2+VlJRXVlZoZ2dfXV2mpaWamZlJR0dbWVkAfqyAf3+NqLV2dXXZ8/8ea4bK6/wUERGfytybu8vj8PU5P0MAAAAXfaI/mby44vfS5+89lbrB7v+90duRn6eptbt8jJRPXWUxQkguS1cpWGoUXnddhJQqUmEccZGKmJ9sdXo6RkwAbJK00NtDPDk2epSEvNMbS12nw89NcoFjnbZaqMaAp7Wp1OPI3+tzj5sEM0MhPksTAACetsBMlLEMGB5tttB+rMCMxdlumKrGSXgYAAAbZElEQVR4nO1dCXvaxrqWYma0ApIQArQhBEhgCGlC6Am2szhbm7rxqZvWx+49N71u7///DXdWLRjS0964CQ7vkxjQOvPqW2eTIOywww477LDDDjvssMMOO+ywww477LDDNcifugCfN9TVDZQvldHm7+j7EBqr9Fh0Q5V+pEa2Y8djBkJFHf+P2BYuhL5PPhot8pGOslPKPOv4j1G/wSJ+lpAJCRb+o6foT498FeoOI8dKyBeD0jZKMtVuOPSzRU5wyff0muLfdhht9Kce4q99xIEDGvhrI67S3ZZHWZpSkmoWP08NdPrZxWJpYeaFyPm7Sv3ZwMJilWIFdaAlVG0pEoR2YKZ0b/RgSD6DLv6bNnPVnVGdFrpT9KeeYA7bg7+t1J8NRh1V0BUkgm3gtfQhFEFnLEowMvR6NdxXbCyM9ekDTE9aG8rMyAmjGTu9hsRUjfvoq97xP1UlPhnUsTQSeg9cIfSg92QGRVEEAP2BneHQMwGRQn9QwyLWr3mI5ZDQF4rUk0Q1TNzoAXbHveGX54pHpqjUJBF+XQMiMDF7DABiGsEoDbwaRDJY3a9BH8khMW/+PyJyttsc65g9THL6j3Z+Wdm59VTqiydPTzK2xPWQFAmIMFajsWKngtXp4TN9EBMZdABAbLom5tCHvcKlg8anqdPfBPnw2fFzpabADayVAcZfm0DsO1NTxA7ZAjWiuo6IXYmrmMhjVxU7j6fVYf9TVezmIbeeHI+BJBUFDgCw9nu2Cf2xAZSwloYKjPB1XFOaykIKlZ4stDqmm92gNUhubfi8eHbyvVmkDrEFvh4Pxkh/v37x4uXLl69effvty5cvChYwP/aJIAfAnGLDlgJlaAipCWBV0IfNaWbs/HGTR4fG+jJsK6ru85oJAeft6xcvv3316vU3d9NYfPHt66/KePVSHHSnw44tZRyC759DBWLZUoOaEleNYQ2AEIV9pqezW8jpA4UFjYJ1m4RQt7pjauwAFrRvX1G+vnmWJi9evXlUxhuEr16/GEbu06ffnQw8kZKOpXGMg8ShIsZW5EERxT3V2PR4yFeNJWXKUjfH2liWrUM9TWqEAiR031Pm3rx5+/bRaX0kvtYqlaOjCsKyUsKj9/8cPXv6/v37p8cnHUhDGe/hvfYICeR41lGAqMzUakdRInaXCInqPsv30mhDUbYPjR7Agofq/wJR9+0Pb5C0VbQzXZCN/R81TNryCnGonWol+rR3b7+29p68e//+LsLxcw8/gM7XUOL+BMaGiyQyJYZPthChsEMDaj0Y3Zb2g/ZURM4CADvpvkRC9+innzFL2m94n/UVkrwzrXJ0qVW05QJzeJ5xeHRXe5Pc29vbuzx9iAn87nggFp0JiKMuYrRPDJ81AxBlK7TZwJh19Q+UaItgdZuoyhAMjp8+O3nzCLHyw78Ifd/hvQZW2osj7WhxrmlzGXF4dsXp086fapUfn2H+9u7cuSAMPj3xCn7bUyCwI1kwrHTQROINB9QIOqB3O7xuIxYhsvjeCTJhp5dvCC1vIkLOL1jlGvjbfD6pLOaaJquaVlksGX3a5MkPyP6dYPb27t+5c+eAMnjcKSUp9mC4P7YVbBfBkLDXisV+9RPX+6OgHmBfKdknT5+9u9y7dzqhHuEE0VWZLAQ3StPzCZKyxVFlcahdCToyf4eYucpRZbK8Ct+i7z9dcvowg3NM4C+d1ciREtnHaa/fU+zRbZC9+ghlrACOj+8+PMUU3PuNydWP1pGmXQjOf/37lXZ5WdE0/VJbCOeHgq6dCXPM57yiHSLNxqr+5ske1V4GIoK/PF+XJidBMAQ1MwlvQ8DnI0cIgIfIuzi4T+jjTuHNaD45F/RvsKM4WhwuJ6fCciFcqoK+1IUlsoFIgX/Al3iIjnj07l6JPiSClMA1yR2UILQD5xZ4jeoMpfnQPkHkoRrvleirfN9aHgrPjpC30LSlIF+dCwtSZXUh6BO0C7ni13jDs7X0MQKPB8oqgchUxFH7D0q2BVBTG3kM+/ndhwekviv0vekhcn6onB/Ol5XJlSAc5mdezFXhAjngt75qjV5jS3l6nT5K4LN+p5wSQy9OnVtg9qpDpLewc3z3gtV2hb7Ky7bgIxuHBO3wTPu9eCridVGZTJZzof/fP2qEvr019BECQ7ePwhgKCBWvl4bXuom3D3JqogDWO7k7z+pK6bvKkwpVeD/BsQmm7rB8ur5c/o502f2Kxc6X6+lDBPpuGPaHnu15nWQWRKFzC8hDaTt2GclTprcF+s6ygPhXQTXOsOWbnC9Wz18gH3Kotl+xQ5d7m+i7szD8MHQjDESkX70NaVroSShS7oUXxYpS+uYZfQ+F1lA9XS7Pz8+vrkvM4kI1nvPg+ed7m+kThNFw2B05ltUwbgN3Qr2P3CHYj9r3SxW9T1OHCaNvciicvp62rg8HIlicCq2fHmmUP+23D9An91DWBiUvug2BHoIxNEUgTUNDvbOGvj1u+d62hN+0V/90hMOLa7pLhrdUDw9PryjTBx9QXl/Bie905t2OPl4fIp8xTtuysLeWPu47EH0/a5U3/zNrL87m1y+jHp6eLZn0VfY+QF+HxC093wmDdPsDlhEOIGIXp+v3V2paNn5vG8KvKK/9+bv1QvPuZxS6MNN3tZc1GazifqTQeK/baPnWttOnT2sA+QwfpwuL1aoyEo4y+pZHVxeHi8WGSEN/8tuEUK3N722k72DMgmbJSwXd2O6gpTVQRDhgKdM1+u6XIr+3voBDaKyfb46vic1iYaBHID+s4Eb8D+juicTzDWiOw+1OdNtjCMAsZFxco4+J30GF03dRIW2m2u/Xve/h0a+//jJN9frP2uRss/DdzRO2/WQMk3CLxc9FWZM3sngNNtFHnYdG8gwkfxoKmg8Pr13sENGqvf73SL5c3t8ofBe8x1MEwxDBHaXtbZXAFKWewyhv4r1OH+PhPmbvHT1meTRfXCyXK+Knq4Q/dNhXz617G3X34nk+wgOGar3attrbGjqPTAh7TiF2vU4fEz+SuLEBPPPfzyqTykKQS0JzeX7B+Ks8+uneJr/7ODd8QIJj0r2mG1spferMlPbT8qCm6xVm4rd3rj1i/df/i5PeS0EPBD7qEXkNQTibVM4Wh6TH42Cj8BXYi0cJhNvbt1Gf1sRuuFL+NTVm4ndQeXRCDmn/gHIKFDT3/iUIF4eCLqN/i+WhsDhCHvn8DGnv7xuF7xcJiLaNm0dFkPjhqDPe1kbS+n5zkPsMDvU6fZy/i8rr/bBhCM+R67gShOjtpbDQdOFKFw5/F5aI0MsJiWm0q03sPT6WwLgfRWkQexJQIqHhTMfbOSSjOrCnq6KHsUb8mPrem1dev7BjlPVqywuh8dXRQjifCIvJIYpYFvOJdiVT93y+t0F1D44VEYzddqPtO24/EaEjyFYUb+O4emMwSK11Dk9eI37c/M0nj968shaktfl4ci6gXE6YT86EQ+3sEA82uESGb7KZPWL3IB7vLKhVyx0lCsr9DGeUrinG541W0vc3JJtrnC8P/pD+VrTnwjvEmPtImy8m2lJYakv5UtOwy0CWT6uc8ZhlVXXnHvUaZo8ZjIafxi75jLbM8xqu294Ya937EH9H2ltLQEHzV5XJ5bmmnePO8cPLiXZGWqS1ynxvA3t3PRbvATNg/KktJ8Sew2j729XuZ3xwBOK6XIHzt/fb5BtZFcIJGSCkXaE/kzkeYIXsHmLz/nrZe3xxUuNDJTtDO+GCL7dIg4FabW0Tf+ofNBJ9QP727p3++l6Qf8HDMZC0nZFeDdxBucQOZW+97B1koodcRxq6aZBP0qJKUNe3NPFYi3X2734mgPOF8IQ165FxkRruPJos53v31rL3eH6isDGm6L8d1pGy+u2ViEndnnaD6h+HqvLm+IVQuDitTLQMk8ry7ODeRvJqkEwAAUmAPsgIZqS0+vbwtQLZD8L6+tLLKgLZtVjT1lQk8P7F71fnRwjL87OL+5nNW2Xv4oQ4XHssApRmjMYQeORGqi5vKMLnj7rVF+OR0+YmsF5tWI4bpf1eN46H8azXT12rvnj8If727uUobC2T9/AEkiFpMHb7HcVuGVEHZgPo1a0VQN1y+vu2AkXb8zycg+KxEggSpMDfxEH/3cWdVQqLBK5BkbyLux3IPAaMG+1wZvYE1Ukgmxa4VfZuFVU/TPvdZCwSukABkDVnAiAp45Pv5ndWCdzMYIG8g/cnYzNrVgaDuqD7vWZLkJ0hmWdJsL30IQlECosbe6O0iFHQiztZgyaAUg2PVTt4/IcM3s+4e3zn9O6JSKfRABuQTwl3zbX6QxVP069Fn7ruHweqbrQabasI33dCtwfZoDtAKbQ7SAovDlYovJ8zl4vdwcX74+eexCQYdqN0OsZjv2N8PwPP2xes4Ra38v0hZN1wTNwW7E37vUwIFdM7weNNHz++7lCIyKHtp++fnuxjscuVNrFQZpsg39skjBkR9lZWEm+z2v4h+hKAg74b+lYCyOjFQQd7Fwl5FvH5yS93Hz6czy8uLg4Q0Mf83cOHd4/jDrKaUjbxDVIbClF6gYwesqMBuXKdsNhIbvHMU6FhQ3vqhlZdFYZIlAb9NIrSfcgcCpRMBXnsTmfw/PlgMOh0vH9CU8mIY65ilI6mHhAl7CbkRk8EHlVY2rbiJ7dibMt6JGYShRauqOxBOwhDq1VtOMPiHGhQRrbdA+QoJXWQGXURawqJLasBMIPiLaz41pq/QAxc1hjoSOMopE1bskVpy//yHyh6zGaeDqOujb6beJC8XLdGNluaxOhDu1W8iT/asja+/xRp4rq8C2TWicKsdQY5AGUcY3+adLGMwUFMpkr2RqMAceZh3oDv95HO1phuGoGyT2kyZrWyvfPDv6c6fzPcUSMb5G4N3HxpC9cEduA6HQA67khB7A1dJ0A0jpCHsSIU3wUooZB6QtUdg2yKfX36gLVNVbsPSuIntG/jsg+WU826QNTA97NmuHqidEahJc8gGFmIPmBHltpKoO3i1F/vSXDmJxB4LUF3x2YmaS3Ic4x2Z1q8kSC3bp/6tlpGLhRhO2dPGDWHRJF7ZhwK2I308Yp8oWnT1q82hPuyP5SUESImwkkaP8/jTsKxy32S8q2jT0Z5SPZDbxTkoyF1XTICcKZE1TpS1ZiOLLNZA4AxgGMDaTtUVLymWraqg1D1MiOX7q/c7WYq8QkhF9rM63reAaEORsyfJLEvOEhJI0pbAKhwyV0J6a3geCSh1Ye5ok5n2QW729il+5dRUC7kM5hSD1JD6Cuwz8SrLTLdDJQx/hYpQ3xaK+sNEhoPsqvUZ9vUI/T/REG3kHNlbrPacwQdj2lkRBgJo7VvdjB9etckxjCM+Lm6l2cYTr7ozReEaqPFg462XxWspp2Py2LLRiL6hkTgGjWSXshpJrtBIeBzt30g+F+ArNezWustWejVerkR40s/9ms9KpCBTT6MzHm4w9yg1m9xrrsRxRCjLhgdz80z1irTx6DJ5K0tUopanLTGuJDfVr8g67ceodkvBHAqk74e4HatS5fazDkXix2jXzx9yX5YCG9kyo08y+ZXOft0d+Z6BkWNlW9ftPenYNTK43nptJZ6EmcdaNKKhE2/SH+7AaNueYVMKmrGuJ8pa7wyYDTd0ZdBH66MSaVctmCu0enKeMf2l+huN8BK15JhFcZ4O0F5n3prW5b/PNL1Qxmjac5Ru7ey8wv3FgVU/fWtnP0056jau02D9T4qWhvebhAU3IUe3LqWvI+FDQNT9aho325rN9D/HxtGRTVKyZi7o+/PoSSUcnVH359EibCtHTe6wxcGVW85adDdvolZnwdGZtNUJHP/i2/I+mvoSnTw885c/iXEZEiWtJrn7fAfQU8AHdH2qQuynajS5azM2zne6sbRtgl9zds43OpvgEXHrNZ2nuMvITTJqFTvU5djSxGwuOVTl2NLQQecS7d5osJNgi5hb0afuhzbCfkBnbz1GQ78k/WGHzqNNf0OsmE5oWMZ13r8dbR9dZUIueqEfmudZ5TrbXyZ6moTqqxbvO1ZrvrhtZWKyKmW41i60KgRz2Hn3XRyizf76/5Kr5Qst3xUlvbf0R7WHiW1Zs2sNZVuude6lcYA7TBrtSZIshkcuLhuYuLtzX03p9yaiuQqdr88Ll4wwqnXrJHjzc408tlu3Yp649o/6DCX1ggdYjbt1W5yPxjjU2u1OKCTD8e0ELqfDsEDSH60umh/rXCmlSYSK7c47NNpOzeF9kzMXkugjAs1b3RtM19/EEj526qcgcQnLyt8ELLRBewFJUApDeyu98eFaVgAv4WN7pgBBW0nrkBObb4EROkB+gm/qMimSwP2ht4BxCeL+GhXxLukLj/JSvIK4fsp8Ab73iNYeC0LGOQt6SksvSQRl5ClS2Etn3QFanSb0Sm8GkIp5FVOx1y9DBvMTFsAFESfOuVLt5TaU+R+7dobLnnc4lG2LVwBwK+DoQYKLN+wqO8fGfqsyWdN4flm+SQLPamxSVWFuY8Nxh7gZ6BSB4w9mF8F2Lm29BkxhcvwiTAJm9Mm6PtmXtla9gDrA5NLEMwY4XELzX+R9PkP6Df2Uu6Wp/Bz+A0LUx8+NmZ0sSgg2ePO2Dazd5DWh3SHZCfdoEvLCmw6QIr+guNkMBaVAbX8ASk0tAfJ2JZAbob6tDIQdGa96T5jgOnnPmBk4na8bK4gn6Ql1BOmrrAT97p82jrnnkqf2DY6/PGTwjXYY5S84TSI6arFNxdoj2q0dmLUkAW97fJsXI1pgmQGxBa2KX0dsi8ljJD3zukWm8ZWb9JyYi4bYa4rI8peLaackOoAj96FVdy0UlQIUxyyNxPxuE7uUtmTxnSUVsSEjF2czl63jR69g6gQD1T3GHt0gXGXXOLGGggdJmLXpnxSYQI8xgppukSMs0yEApZfcx2RcpqrbSEOezpM4eo09GD2lTWgKJGNDERaFyyxRB99SqhsTCFaTI7Z3BBKU8cnx5gmxDNF0FOnLxfkY5Co7N9UA6HKlLKzOhzAotWW+H1pVegDVulzH5ZiRFpOc8VEMzVX+LwXelnuHHymdR1kLrFG1jNlJucyT+xxu0UfBS9rlfLUQdEMkPq+OyZFpU8RAK7/ZDanWLuhQJs9YGXVMenMqPPBYzL1kdQqqU1K7ah4Rk8qyhVHQGsz4I6E3o/rUsjUDjksUr86bUxmto/Jv5jFMbzBgF7MkvjJoJPJfJXKcxYBGgPaQHgzMxz0zgbLSisGcj9CiyURmlVWcKVfnElEN8JB0Qq0mHZmD58Kg8KIZw8PXZc+JtaY3CTWtkpdA8xmaQmUXHZsxn3p4feZ6vLfzGSLNxM1W1SOlGsLqtJ65PJFlQ4Q8yLI+zz+KFjMiIUY0CvE/tRv5LVZaWzv8TUOmX42WGXJr5Re0CxMFyx1dGTcFwybSuPUPOhMV6T/44Jp3P41y8cChtbKgUw1I15yCLKC1nloDJQeN1aqV7RlCA5zw0xcssfADvDpQ0r0fCf7Qe5K5Ztz0+eanx/BLV8e5Q2YBN9I3qtSdYDT1R0sMhnw38yEcLOjZysHAZhF2aMs8DWHTCipcPMwReBZhthk1eOrHPBebyqskLyBnFmxgoFlq0swcZS7rAzFTLe70o/ZoMdIK+N/PxIaZXXIoLJmyeyuTNwgL1crW99RrPFtcq/Gt0nMZlIBgZmLbtEjgM0WgWwyuiO2P4Z5cRxYkjVUWH40fYTMSyPLUBioOl7piGMGOcvUPy4sUNKdDHUqFmZm8akkZEklImKc8ZdVXg+yDFmiYhqvPAVWG7BPa8yCI9Hk9NLa07yaPTElk9wuXxqG/jRYmYr+nznjLOmrMvGGN9Ox6TPrvBoVsQct8aK7vJ5RdogRN7PVWTNLkyqcVHJJpvKZcLdEvlYV/c28TeZbDTFrBMgFhxs2i9+Ote9UuawXYi6aYuR+NuDm8WbWGnc20Mc6tPhaKi2WXebJKEbEc1QpP701YDENCYUaZc8h86VxeNzSZxkPv6pVdLxM2BS2T+Vl4AbEZ4Ygs88Cpxx0mDQ7nHH7ZuY6cPqile3MgXmMvhl/b0GzVAzHBtdON2LW2oGTY5aTcVOUctFUGJ9T1vrJr+rS2pNuSBanZ/RxPyua5bhFKXYbUcrBgNKnjjP6bqbB2WdJZe6YqnEjLxpbtyHI4tNa+fSGcp19Vm0S6pVTWKfJL8PyaJZj5HExc7zDwnVEuiyTkGZuiWsAixlLWeKM3tsj9KlD/tRZQ8dHh8VzTvb81dCu4YcbFZRax+yx4+jU5fxR0uKSnCLbSD0m4YBJH306Ls6uWH2oKWJ+MjONcsnTTGEuqfII8jJkIf6QtRgUQ1ZOKa6Oka+iRR/Ixwc3aqyV24lNuvRbaGa3tYaIPSmxC0+xG3CX0qGtT0hIwy53blRFicQx2wfGLaEa4Ncgx+wp0PNZUJYNWGEZJNNOpq0AJYHWDMmewlMUKm68ybFb1EvmbnB7aoitsJ3QenSFm0HM+yvEbjAEJmSy0GJ6BiHE26TYKqiV1VRqXuBYlkuDZwXZcrmjmDCOfMufsjQNC0AWmimiiSoDOw2mXFTYuYPifrIOi9rpcq9pmiZZULLN8kbKNm/rKjVbsMcuSkDBOZA5otHPDUXNeUSSNaRTb8saCBikxKDlok8R1wtIpgRN5ijRGSpZvBDV02QUUAmaZckJ/g8sgxI2poStBtVVFi6xhYZKb3UHosHoYz1ZrK2rHDS0S/0i5lQe3Whrn6Dulzti+GpcPalQisRgxpDGDKFZPgMLi1ziGxV85elgVpDFazD6qMINs34iVnnWi8v8fVIomjRu8FYLRh8N8cQHpT4MvXAOMLtcm29uVELDK/In8UVU2lm/DASBKpToqxd7sSS2aFJPybch+8nfEZHnxiaePt4u0eetNGaxBgMex1h5DylJosvSx9r+VsZa5c8LipHAxcC8ucGoVqdGFl8FSB9rQRbXjZr49UpAqtGXA7km7m5rUhMc0r5ftEWp8Tn1xrApscvU7FyhfEXCl4GmGGEVbZh4pWeTprwGsqyS2czNul/Dy0CbWYybPoD0ZDjCJxgPyA8WjA4VqJg1cTXgn9XIYtJKMyYmIMAvT5ce3ORYXnfasSHwkl7pLSxOYqNtfBEMX7I7wyDiQULU7QAoduK00KNuBQm5TFDqkG5MbWgPeswty4o4TqYpM27JsNsvXqHRRDeZjvIEy4ltdJduxNaKAMAbxH02tz8ZTvvRms7bFLkrLx6xRxCZ9iAOwpudxmBUq9VrM0f14jYV/SiSK5NTVsbD1NddRkYb8234AB5pyPWVVejlVnXlDXYqvmJ2ED45XyBw0xL29WJR9erqJXfYYYcddthhhx122GGHHXbYYYcddthhhy8J/weFRpWp15j7lwAAAABJRU5ErkJggg==;" vertex="1" parent="1">
          <mxGeometry x="90" y="190" width="238" height="119" as="geometry" />
        </mxCell>
        <mxCell id="cbg_xlcBTNJZDiDZye4J-2" value="" style="rounded=0;whiteSpace=wrap;html=1;sketch=1;hachureGap=4;jiggle=2;curveFitting=1;fontFamily=Architects Daughter;fontSource=https%3A%2F%2Ffonts.googleapis.com%2Fcss%3Ffamily%3DArchitects%2BDaughter;fontSize=20;fillColor=#dae8fc;strokeColor=#6c8ebf;" vertex="1" parent="1">
          <mxGeometry x="89" y="195" width="240" height="115.5" as="geometry" />
        </mxCell>
        <mxCell id="cbg_xlcBTNJZDiDZye4J-3" value="" style="shape=image;verticalLabelPosition=bottom;labelBackgroundColor=default;verticalAlign=top;aspect=fixed;imageAspect=0;image=data:image/png,iVBORw0KGgoAAAANSUhEUgAAAOEAAADhCAMAAAAJbSJIAAAAilBMVEX29vYAAAD39/cBAQH////7+/vh4eHPz8/y8vLu7u7t7e0TExN0dHSSkpIrKysFBQWFhYVKSkq1tbXg4ODCwsIRERHKysrZ2dkbGxt8fHzS0tKioqLn5+ePj4+0tLRVVVU5OTlpaWlSUlKoqKgkJCQaGhpBQUFeXl6ZmZkvLy82NjZ4eHhtbW1cXFyXfNEVAAAaEElEQVR4nO1dCWOquhImIVHAKooIomi1btja///3XiY7i9W2guecd+fc21oEki+TZTJbHOc/+o/+nwlj8Qs+MaKU/ccJPgLxL/Q96sOfT6qSrPIAiRDqeEGeT9NFEgtKFuk0zwPPoYTjZY9IiH8FQE6MY4TgPE3WRbZ9Pe5nqE6z/fF1mw3XSZpj1gz0b0HHsZE82WWv5zIuF7mMQvjBPts0OL9lyzhnz1H85+LkNYMBlsertwaO3UOTVczYSal+3x9EMIwocdLdy/yH6BTNL7vU4bz8szCygZRHL++iN3L6NjTeecVj7y9RTuizMQHxCRBmTBLsJqaiUM3vI5RPqycnu4BQLGbk52LEmHjrydf1FgyCukv2uvLK1zRZezAmnwmQtS+li0y1/tcI3a8v1B7gv7IF661PnF/Z1Bm/snqENyv8bdKD+S2mTxmRvFUpic9X6mb+HGw+P4bLdZz0mRwT+J7n+QGTb/pJvF4OPz43B/MgXzHrI/gcEyoGfMcYMU2OXzBhftwycaXnECAqBVEQQ9UHLtAxcqbJerU9zhXMBjom5AkdlQZb1j3DsMJA+HH4HEdpoCUULac65oN1jYMlJEij8eehAWQYsgvbgHSIjVeQrEW/ciWwUFVsu5t6nGUlULdeyPsEpd50d7G6rHin6PRrYrdMywR9jDHQVfxzWTPzukyWKWfcj+vBhdp0OZG8MyVA0/EXdwSR9s58/pTFi0Y+rXO+RP+2EoAyX590BxVFsPLOvc4mVbo48BZ2TQNvlhLeQ4iDXFrzGN+UoMOiI4g01QWHYqo5LR4ITxIblosT5yMfA6I1004g4txqWcCX5aSd8YFJDvJS6JoJO28dIgNCN2radIGBlx7BLcxyWPwjvYs9HNGmfTkVk7Gew9nvc59g3Jq8AQ1H+me95WC/xm2vi5gPQlcxcNz2Lg76DGtTyUZo07RlfQ6mW4ZNIEQoJu2vwdBVYxiMcu3f0naLxD0oTGxx3babUxcKHUcgZM2at1soWRqxsZupm5O1QKFluyORmN38rkNZGNOdLnfSMkIt+h871eBiaiScdhEGprN0q6OmhR4eQZvlwEQjESYtz2kVoolG2GuzXDzVfSXuVntCY13ytBOEIFx02kuVKNUZwraHQ6lQ2E4FqCMe9kxBJ9KdTsEhn6bgdsehQeiiYUe6WjAbDC39VHcI0aqrNZ+s0BMQAm2Vgbq9ArkOblsqtUuEKExaV7mzDWLFRN4hQthjcBVGi8QVGaH7JIR8cIRDh7Qw42BuOCROMaspwTtFKEof+uQ7Ku67CyP+MGywZHSNkKsTswV+cGfFFHPDpBs+C6EyWUANAONk2XuczhRT0uOqfVeaSksOKp0hDKs2UQ6SatXb9+qhnuCWCwHPotDurZ0ghBmG/2d6K6/Afhx7lPxw3uFWNurF4731RolQsLNLhC6Ks/JwdF1pS5yM4573XS8ubkL0evF4InkWVgZgFmvIXfGwT+J36clltbisxOhzvF7khChbW3OdpHkUbgsW0erzrF+ux520a21i0u+Wh4z6lAr1UH2yU7SfvBTrJPWENZtwR0RBRF3ywLfvMtnrvlB5hTBZ7BiL+/padwhh3CxHjdgqnhnhaHK6jFerolgud8tlUaxW48tpMgorzzS21WgJHb5rhC5HCMZuJ4KRE1Y4oHyDLE+uZhK9Ud3mmqvqdZO1wxVC9Bm9VFxSLkO3sHyDDDeZJCEnrKf0UnEFpCscfdpt/3uE/NdnhIm23D8PoTAdUuJH232tqj+n/TYKCLXskk8Zh/qiqALx+sM3yQPXDMPbZG6Vd7+t+l5VBHziOLS+ZIuA3y9eS1W/D6GZo96GiU8bJNwn9lL7W7mA52z1vqvLlhpg/7qKpuAFRpsUI0/tpRWUfFgymItoeHm1HPOu0eD99bKK+jkPW3CuyT9d91LW+P0bGhohjjlBL43XxSq7fL4dz/v9YRbODvP9+Tj5vGSrYhenvQBknls++pgh7FouvWm30H6IVHghcsmE6tgZ4bGoYmduEtgtOp5pVnepvAVKR0nZmhwTBSQ0MjdY6IHKtOOZ5uDdc/9d12/UmDeHN+gcIco6tVt8mII7s8yg3XW7xUPrgEtm/O4QutxX4Uph3mNNb2T3LLvFmDZ4fGEA6HuPqQafqMApSi1S4QClbY6Oqr702BC8gx3fZ/95D9KDY5JbjqbhIURTvzOEsAQXXlUV7PmeFwSe/5gSiVdY0t1sMDugqXfPNP5DqtmeEBqtsfKI5GueEzCAnv97iJgrvtdnNQTZz9mc/UOp96gx0FRqk93iuMZE+duzKYYNwtxzAjYUf1sYoeujNcXMQjQf7Pco9f0HdZCmQpvtFmHB48xgBPqBw3spGyu/mE9FPBy3OylVXjiYzVG4R3uYaX7detdLthAauwX31I89Atgcho31U4f1o5/XgsHz4pPoIqHYGbMRGDKIg8Mcpb959c2ijd3CrdotDi9RjwLrGErvtqhZfbP+xITyIC6ForI2nM3n8wE6zNB8382K76p5xhqOaIBG211KKWOg/xPrPpYBJbvPAbJVruz3PERsBM6hn847QuiiyGgreGcdoDmbyRno7XLheDyW6zsv5nssJ91tRduV7BZsikGvERqEgG/WGcI+2c1VRB0bLayV0X42OBw4YyfZrp97YlN43dIm7RawVfTyxS6zTGpKxQM/oG/u2A54MAhDCOzvqpeyPb6/4tyD6eBwQLNZuB+E873OLjB6fRlGSZpLG4WxWlAVmCeSEkTDl1cVx1izWzB2ztAqp14fHeajA9gxOrVbBFxiHOzn4fzA1uLBAM0OYTXG8jA6vl6y1XK3W0dRHMdRtN7tlqvs8noc2WqcRs3cnkm/OcydCesnMz6Bd4kQopyLPWvmw2C2d+cumstKGLtFvc4N9IXdYjQMKBNzQRN1kIbgjnVtTJyJTmE4CAcHmGhuq9buARwqI8gp8rgU6AS435EHbZPdgtJpMYHF4jBDDc4hP0AoeLgpemzp8XyIHfa8jnVtqGy3wJ6T2sF0D6D3YipVjD4TAdn6+jyEYilgdSB5dDlrHvzGbnG+qGBNeLfPdine83XePhsrPPXH+uOobvkGQtO3Ny9rnvjDFOlxlQh+qmUG9BZC8wlCJQ76xaUhTr8Rm/3XflskgcM1xzYGJsZjgfB5PMTql1TygnRJ03j5Mhk15RaqUrifXIooVbr9mi6Vj8an2C2+LAjWSvAiSfvxbphtPyfH99F8JmR1tg3ilottttrF/TSgt5MLPcNukdx2ncXKz4kjgGwRikAXR4mUW++q8BPsFsWtmBmp19D/46rdQndu5w67BR12Ow4Zje4pp65KrV2/6jFVego7+84R3ml8ekip2LFMTx3qvOOuYruwHfXUabxF3A0XGQdjW2XSpd1iScwq2FKBfNlZlkrt1M9767ceZ4mpv0XPQsiW4Nn68RkxSkRJNKjsyLqNmUHo2G8x4xil/WPZ27prhJxOLYUGMXEoOf0J8RZgm4kc8lBGYqEe4a6rz0PoGoQIzcYp+amPfkMxTGpPx0In8ryIkprdYjRkW1dr+/O9eoi7PW40ZBvpYXmDGdqb6a72FiLMw3RW+OM9gzSrPx2UAh3J42yDKtpTUVTH+8NdqZUZR0WClRlkWRVBCN+zWwivxng1maGmeIvRruP9oYsWXBjWSdWEGVHW4XAq4pynQS55eNXeJkQWvoV08rjYKr8n17JbiA8rsniCro1ChqOm4DLZs44fw/VimnPXQ2W10K58VF718uliPfy4lh5UxFtcep3HWwg9DabpFjUsWCXn4NmZO1ou15Dlut9fLBb9PmS9XoPl4nNisik3aubgyjZlLH6KFzS3W0w/arVCWpX4DbuFrS8t0ceUT9BPjEYgXvFuVfIhpO0W74Uv3XWepxFmpRHaz/bobsf12yRftM/6lNjxFk+0W1DiJdk9qtH7KcwSz5YfnuqrLxRnhKaFUuh/026hFwV197FYVCMS/ohoBCZM+snwTUeA3hsJVbJbzN9Wif8HxFs0RSMIuwWoudfZm3KH+Rqh8UYAOrxluzSQdosqij8iZkZXBqJ583iZTcIqpCsUHrNl3PMokZvpBgid8dDkGPrabiGjX2meRMvx5e14VjYLDWo2Px9ft+NllPQouZm5FltW7la9TZxv2S0cabcQ8bCQ4zpNmUzDfk57uYydvc+zCEMmLN1Lfwviy5ICjXB3q2babiEnWy6Rqp9OyVJxB0a61AiDVnlI9BTxdl/bN/9Vv36rueibnphbzrln/BHiLlPSabW+i47tIqSFmSy8DjND+qbYot1iqU5nFqJNZxCpszFK02m7pWL6qfLBhmiU8w7Trt0CDDP5WQCEzNOfbeegBZ8IrhdyRRLatrOkqxS0vFWh4H7bGdQweZEpY7g2MQtaT+sbZBwatCqD+dJ+MkPsz+SCwSfvwZK0YygVwiklywEvS2pnZ+1FWhiCjLf2qQ+zXXNs8u8JU2dt1Di8zG4y+5LI0rBB086L/FcnIjQQP6EnL+aW3hlKjDrK8sfPttBNy7vPNqYPHSBsQx1v5ftNU667ETJAM5PwbPe2qh3NsoQqTmLH+e4iYvo5zJ40GZuoWIEzFMJ+V3IUyTcVuwX/eYng2DTbHeg7JA/Hwnn0guy2E4sv2uQdiolQl3G5Cq5IaoaOY+GD94OXwnmCaSQyRYVlHQ/7OO6MfYpIf66USHKUaHPR+TSMe5SUzBb16mGzreJb4F5cnJQHrqWaFD/n/bazbNaJ1WvJG/ua3eL9UkT9gKtuLJuFdRaSPN/SCRZRIQ+lq5EYgOHyGecigitWsHKV8aRcLwv0fnLJ+IlWi3Q6la6JbLO/4CdaZVYSrGaE3PDU6VFIZZAkHzbGHwhdadgAvvFuoXhs7gyDYcv5Q2+BJN4aLLaoFimjKl//1PBN+UshpPFr57Xz9PNJ2TSRjpXZ4qF2C7Qfpy0Jvd9DCDY2J8lGTYz6IUL4McoS5884x5IT2GbSYmLV8RvsVHFS1gw1KRbeYz10fk+w0aFevNoYjHrVvg5WfB26SAkMjDYryJ/553BPE1/AKWT8Wl6Oas9zH0L11+x4WfZ9osben8RAQ9xdi9A8jVaXybwG5trfh8llteaxmG0kJG6BpAeJl6fxbvjy+j5AzTTbvL4Md3Gac6PMHw+rgcxBlYB2keiTx5mAYxsuBLa/EKHscNIcKIVRLEXU0g7rLwRXIZmAwGxy78h+9R/9R/+f9IUbobzhtwXcUcb3i/7W265npv6ZcqnxPT+47eoz39Rs8JSGV5746rtvlCCUF3fWxaKr5uNqTO3XRIIkzpsOqwAVqZ/E07s3235QtS9g4WoDa34C5z1TfIUB0i3HS5V4wEWEqZLFsRf4ZtGBGk/vjb5SEXAvTdKTDD3a3mUXYZXg8df6Xq6id6KXdyWQz94/Iueaaz+0RXyaVwS8UbbgD/ielQeLLPlJtvclTmMAX4Q4PKm1CfsOIjjZ297vGUY8nVkp1Rcmi60SuLU25rJo7hKUxlU5VjwySSm0HSRZEA+qWs3v22qB0xGcVRE2HHJEY6HFv+t4RR9SWUBN9BWSQs4n15C0CJzShrdRD3yrQyvYAT6E3ERaQGqDIHBE64GDFn8bKu7SxfEzlcRLy6GTrI8FofJZv+kI4Yl8X07OhqJ8nhSCD67khpXHpKixkXqbhq0W31CzSnxACirIIsFv3amkKMd7TNFg21U0CAxEvuGb6A347Maw9gORjATSdch+CgeKNWsV2dXPymjE3rHxZmDjfA4pRQPWfuLVdKXU7aO7uqlGyNpqUhL7GXe14nPwJQ/ZCHRyDzJZ+CpfG8YTdE1pAxyYlCsHR9U2a1lnMxdypyxhEsO8f8ijysBl4q7p1PDQLQ9F8CjTZc6uLxgYGAgp97DuoLBevSjloHEiVY6n/IvS3E0jaetFpWaBPFSD+QFSfs3ZdKNqPFTfju4bh6aXIssvD+Pcntmu8xDWiCDgSQWxXg0xq7I+415DhDlLnaYQosiCSLUGvcz2wWA2mg/CAeunH/p2okP0f4Iw1KfuklKwx1WE7HbGPEhcCr0zkK3jOIb/Fb22KgghRxvI6RpdoRBSbB3CwcA6D/hXCEPtmEfGpfi4qwghkWAAaxVjZu6oZROmOzOqzlm0mObTRTQ2libWJY2XI3kzhX30eyrHxHQan9AMclChfWi8vn6FkA9FKJeqA6NvIIQse2wShTkmsFfCjU6viI6xQ6T3JXGSiYpfdNFGvRN7yhCJ0JooaxzrG4zGaMAwHgYzcx7wr8Yht5qzx2hwKIc4NiIEQQpS8EDnZP1UX8eOZzrluJRWh8qpnpNoEQZjIfu0y1YFebMvXk69CZod5vzbKsKf9VJxADbGb6hsImtE6HNB1PMge2kppSdUWVJGnLKeRicHBkcucZmaE4+U3wwX/+B/1t8PAzEhKw/aXyJkJb1RLovfwcOAZ9Vl4qJfzlkKCw0yVbZ4yGSQVMchJAphpGagQS6FFNYlQAD0AppAcj/+ba+C8GerBX+w6FdnwCvjEIRhh/OvvPnABmFMy5tr1oMhlR0XN9W4BYSyGO3pzDsHJMPq60m5ivBnq4XaBIQV+eIKQuCi7/ApxoaI9ZHoaLaohIlgcMblXgB6zDUhZK0HIqDj1eMtfo8QHAKr8lYjQgzVgE5a89+m1qNZaluUYM+45ddfNd+bEcJmzMcNESU/RqjkfldLITy9ZR0hFq4UvDyfC8PcxGbjJCdbOJkM+7lO+Am37z43J8vnH2Q2t4oQgyjfGDPz83HY4B2hLxmEbFmLxquEKITAQertsmJhisM4lr6vSNZvcLwUIhKaNxF1bBVMIw+x2Gk2xMz8vJe+1mSnrU6fYhDSHpchj75RD0qH+hcT1QZBBEYuNew87XIqU5eV5e46Qke8/qEIJ2RbzuJ7MB76AyN/7MVsb/bENJUiSaZvYu2gwryR3N2rvnZc5ua8qq8QinsejNCbm1UQXKvNuwbSdx1mQi4KwN5AveFV2eNzq+clyNrxld01xEm7pV5aH4fqu0eOwwmhC/26EFQNVYSwLT4pEVK9XrYyXI0sNQhZILO/MGuPmKWHhN7TS52H89Cx8xadKK4h5AxTdV6L6ZO+qn2tYSsfioE5F91FZ7UxFOw8Bk9CKLQJnI8HNknSei9VuyrYG/CupqvArqYl5Qsl0REJkTJE2Vzvg/m/fe+uXoobcl/+ppeyP/05EjvxBbVjgcxMMzUSHbAMK6ayq5NygQy9I3LIw73nyvZ9YwS9azMN/+7BPIRJMJS1x80ILRnoHRCaGtSCPkRK5TVPe5G+lWRdJjdlWka40kt5NN/Deym0+3J7WvXEPriO0MG5qSdrBkvZ8VbSVmHpZgG/p9HYG0tGS4Yzhk61EqMBIZvTvGnqkUdKbbqTga+EbNwGhA65qFqiObGa2I4uZfNMOsyKVPkAwVnBvaT4RPYSoo9VahiHrKV3I4h3IH2trHvQONSeFFcRqohZPnmST82WN0sDimW+w6X9Sjj8AI4eUUuufmcDD8U0zm58WbTAQ0PNCNUpU4wZ732z1tkshAe5Or4SKcFAWutRTx1p2oBQyEmsiM0TEKrAbuhZA6Q07NYoZDMIfA/QN1U/UTtVYN+MQ9VLlVSkNPf27DR9VC+9iRAeqSrgw/IotCbAimkBW7vjRJ57SNdKTtII9WC3qIqwPR6a6HxNFTOQpcXYVV9a4yHmvZSHNlooVtUijNTbAUJ4pmpz6Zc6Y27U86VgTLY+RqpNEArUxUT3dW0R5Jwuywi/1ybej9DJUYUqMezkIEVsl8cUyC/ZopFnYi6F9XCv3xlohKE0nmJu+Coh3FQQui2OQ1Z+dZhUMi2I+iGhYp69RPy4ddKLtqFaD9m3Q/0MeZewYfbF8pCPoVETcBrWdd5nUqFGA9mPeFgdia8VNwcQfHjttLVpP5LZXUK1EbFyJNCljGjmN4/O5/NodN5U1GE9pzaXhuzGs6bRZhU0mUx/hhDWREsbkFQdOYhU3lfyXOmUNOz3UIk0bJz6qpuWQJW07u9161qD/XXREMXwM4TWnM+av/4kdpqt1oYmJU1N8eW9HM2yPtNU7wnRwHsMQsxHouFh0ynIeWMb60dmlsYD3nclwssmUlstKhRyk12tKhwh7zsNCIfqu1l162e2GLV9obiDBnP1cBmcyOfll/0+eIqf+s3IvmpJbc1tFzZHtZNMWJ9D9FpHuFTf7avf0dK+sAGhQ/0TV8uEtiHfFeb6k18dL5Rb2JqCvETqSVcvn7xWVxFm9QEjnATcJq8gzDVT/Ltx5TvY2qtx9nYlRom9WilnbBaymjRFLtN0hMqZv9QD0oYyUtyxbHdVhMhWFZlXH7nXCkIN1QS1Df8ur6wGVuqf5qxDIrjXWVb91Nieb+nUc15x7+/sSs0F6cOkMTlduYUJj4118Xjumfe8wb9IWlH2i9KDUHelYGNr4TVHFLHBT7KNVYdNBumVm1mOmcQzqtX6uBMTiz2F4GsQjzUrkbifxqtxdMX3hiSr8bqargXbCravE0eBEqOXrIvxeDXcQfKrrwJIMPEWu9XY0DCaEkqmxXhZCuhmXWg4rtPqWnIgCFu67t1a9mNVuN80wskN3zKsTpHjhdzyQ9OhKISIA0AccXZgtQ7mLouu9Q7Rna5XsIFuTaTVl6sp4satorTSeR/SPdzSrOgPuE63Xn83YcZCrZ15arBuW2Rp+LS3wb9FwtgkWPhXRp7dIu606KqJ9J9EqCwVIRuFz65MG2Qm0sZNxT9A2lLRvKn4+4madJs318K/knBpIv1e9NHfQaW18N8bhdgkpkNfbCr+ZsJ8tf+n10JHaaBubyr+TgKnNjUO/821kBE9CWXLxz+5FgriJuDVvzkIgSBxapwE/+I8akjmrf6P/qP/6Jf0P8ynXGjZmS9lAAAAAElFTkSuQmCC;" vertex="1" parent="1">
          <mxGeometry x="880" y="171.75" width="155.5" height="155.5" as="geometry" />
        </mxCell>
        <mxCell id="cbg_xlcBTNJZDiDZye4J-4" value="" style="rounded=0;whiteSpace=wrap;html=1;sketch=1;hachureGap=4;jiggle=2;curveFitting=1;fontFamily=Architects Daughter;fontSource=https%3A%2F%2Ffonts.googleapis.com%2Fcss%3Ffamily%3DArchitects%2BDaughter;fontSize=20;fillColor=#dae8fc;strokeColor=#6c8ebf;" vertex="1" parent="1">
          <mxGeometry x="880" y="173.88" width="160" height="157.75" as="geometry" />
        </mxCell>
        <mxCell id="cbg_xlcBTNJZDiDZye4J-11" value="" style="edgeStyle=orthogonalEdgeStyle;rounded=0;sketch=1;hachureGap=4;jiggle=2;curveFitting=1;orthogonalLoop=1;jettySize=auto;html=1;fontFamily=Architects Daughter;fontSource=https%3A%2F%2Ffonts.googleapis.com%2Fcss%3Ffamily%3DArchitects%2BDaughter;fontSize=30;fillColor=#dae8fc;strokeColor=#6c8ebf;strokeWidth=2;" edge="1" parent="1" source="cbg_xlcBTNJZDiDZye4J-9" target="cbg_xlcBTNJZDiDZye4J-3">
          <mxGeometry relative="1" as="geometry">
            <mxPoint x="870" y="250" as="targetPoint" />
          </mxGeometry>
        </mxCell>
        <mxCell id="cbg_xlcBTNJZDiDZye4J-9" value="DataX" style="rounded=1;whiteSpace=wrap;html=1;sketch=1;hachureGap=4;jiggle=2;curveFitting=1;fontFamily=Architects Daughter;fontSource=https%3A%2F%2Ffonts.googleapis.com%2Fcss%3Ffamily%3DArchitects%2BDaughter;fontSize=45;fillColor=#dae8fc;strokeColor=#6c8ebf;fontColor=#4D4D4D;" vertex="1" parent="1">
          <mxGeometry x="510" y="186.75" width="200" height="125.5" as="geometry" />
        </mxCell>
        <mxCell id="cbg_xlcBTNJZDiDZye4J-12" value="data" style="text;html=1;strokeColor=none;fillColor=none;align=center;verticalAlign=middle;whiteSpace=wrap;rounded=0;sketch=1;hachureGap=4;jiggle=2;curveFitting=1;fontFamily=Architects Daughter;fontSource=https%3A%2F%2Ffonts.googleapis.com%2Fcss%3Ffamily%3DArchitects%2BDaughter;fontSize=20;fontColor=#4D4D4D;" vertex="1" parent="1">
          <mxGeometry x="390" y="220" width="60" height="30" as="geometry" />
        </mxCell>
        <mxCell id="cbg_xlcBTNJZDiDZye4J-13" value="data" style="text;html=1;strokeColor=none;fillColor=none;align=center;verticalAlign=middle;whiteSpace=wrap;rounded=0;sketch=1;hachureGap=4;jiggle=2;curveFitting=1;fontFamily=Architects Daughter;fontSource=https%3A%2F%2Ffonts.googleapis.com%2Fcss%3Ffamily%3DArchitects%2BDaughter;fontSize=20;fontColor=#4D4D4D;" vertex="1" parent="1">
          <mxGeometry x="770" y="220" width="60" height="30" as="geometry" />
        </mxCell>
      </root>
    </mxGraphModel>
  </diagram>
</mxfile>
